<svg width="65" height="65" viewBox="0 0 65 65" fill="none" xmlns="http://www.w3.org/2000/svg">
<path d="M32.5 0C14.58 0 0 14.5788 0 32.5C0 50.4212 14.58 65 32.5 65C50.42 65 65 50.4212 65 32.5C65 14.5788 50.42 0 32.5 0ZM48.125 35H35V48.75C35 50.13 33.88 51.25 32.5 51.25C31.12 51.25 30 50.13 30 48.75V35H16.875C15.495 35 14.375 33.88 14.375 32.5C14.375 31.12 15.495 30 16.875 30H30V17.5C30 16.12 31.12 15 32.5 15C33.88 15 35 16.12 35 17.5V30H48.125C49.505 30 50.625 31.12 50.625 32.5C50.625 33.88 49.505 35 48.125 35Z" fill="#2D2D2D"/>
</svg>
