<svg width="1120" height="780" viewBox="0 0 1120 780" fill="none" xmlns="http://www.w3.org/2000/svg">
<g clip-path="url(#clip0_264_127)">
<rect width="1120" height="780" rx="20" fill="#2D2D2D"/>
<g clip-path="url(#clip1_264_127)">
<path d="M-400 48L-370.8 60.5C-341.7 73 -283.3 98 -225.2 99.8C-167 101.7 -109 80.3 -50.8 84C7.30002 87.7 65.7 116.3 123.8 110.8C182 105.3 240 65.7 298.2 78.3C356.3 91 414.7 156 472.8 157.8C531 159.7 589 98.3 647.2 85.7C705.3 73 763.7 109 821.8 134.2C880 159.3 938 173.7 996.2 186.3C1054.3 199 1112.7 210 1170.8 184.8C1229 159.7 1287 98.3 1345.2 87.5C1403.3 76.7 1461.7 116.3 1490.8 136.2L1520 156V-234H1490.8C1461.7 -234 1403.3 -234 1345.2 -234C1287 -234 1229 -234 1170.8 -234C1112.7 -234 1054.3 -234 996.2 -234C938 -234 880 -234 821.8 -234C763.7 -234 705.3 -234 647.2 -234C589 -234 531 -234 472.8 -234C414.7 -234 356.3 -234 298.2 -234C240 -234 182 -234 123.8 -234C65.7 -234 7.30002 -234 -50.8 -234C-109 -234 -167 -234 -225.2 -234C-283.3 -234 -341.7 -234 -370.8 -234H-400V48Z" fill="#505050"/>
<path d="M-400 415L-370.8 424C-341.7 433 -283.3 451 -225.2 451C-167 451 -109 433 -50.8 438.3C7.30002 443.7 65.7 472.3 123.8 449C182 425.7 240 350.3 298.2 334.2C356.3 318 414.7 361 472.8 368.2C531 375.3 589 346.7 647.2 328.7C705.3 310.7 763.7 303.3 821.8 305.2C880 307 938 318 996.2 346.8C1054.3 375.7 1112.7 422.3 1170.8 433C1229 443.7 1287 418.3 1345.2 402.2C1403.3 386 1461.7 379 1490.8 375.5L1520 372V154L1490.8 134.2C1461.7 114.3 1403.3 74.7 1345.2 85.5C1287 96.3 1229 157.7 1170.8 182.8C1112.7 208 1054.3 197 996.2 184.3C938 171.7 880 157.3 821.8 132.2C763.7 107 705.3 71 647.2 83.7C589 96.3 531 157.7 472.8 155.8C414.7 154 356.3 89 298.2 76.3C240 63.7 182 103.3 123.8 108.8C65.7 114.3 7.30002 85.7 -50.8 82C-109 78.3 -167 99.7 -225.2 97.8C-283.3 96 -341.7 71 -370.8 58.5L-400 46V415Z" fill="#3E3E3E"/>
<path d="M-400 523L-370.8 535.7C-341.7 548.3 -283.3 573.7 -225.2 586.3C-167 599 -109 599 -50.8 604.3C7.30002 609.7 65.7 620.3 123.8 611.3C182 602.3 240 573.7 298.2 562.8C356.3 552 414.7 559 472.8 562.5C531 566 589 566 647.2 558.8C705.3 551.7 763.7 537.3 821.8 537.3C880 537.3 938 551.7 996.2 558.8C1054.3 566 1112.7 566 1170.8 578.7C1229 591.3 1287 616.7 1345.2 627.5C1403.3 638.3 1461.7 634.7 1490.8 632.8L1520 631V370L1490.8 373.5C1461.7 377 1403.3 384 1345.2 400.2C1287 416.3 1229 441.7 1170.8 431C1112.7 420.3 1054.3 373.7 996.2 344.8C938 316 880 305 821.8 303.2C763.7 301.3 705.3 308.7 647.2 326.7C589 344.7 531 373.3 472.8 366.2C414.7 359 356.3 316 298.2 332.2C240 348.3 182 423.7 123.8 447C65.7 470.3 7.30002 441.7 -50.8 436.3C-109 431 -167 449 -225.2 449C-283.3 449 -341.7 431 -370.8 422L-400 413V523Z" fill="#2D2D2D"/>
<path d="M-400 728L-370.8 737C-341.7 746 -283.3 764 -225.2 767.7C-167 771.3 -109 760.7 -50.8 753.5C7.30002 746.3 65.7 742.7 123.8 739C182 735.3 240 731.7 298.2 733.5C356.3 735.3 414.7 742.7 472.8 740.8C531 739 589 728 647.2 720.8C705.3 713.7 763.7 710.3 821.8 703.2C880 696 938 685 996.2 695.7C1054.3 706.3 1112.7 738.7 1170.8 756.7C1229 774.7 1287 778.3 1345.2 774.8C1403.3 771.3 1461.7 760.7 1490.8 755.3L1520 750V629L1490.8 630.8C1461.7 632.7 1403.3 636.3 1345.2 625.5C1287 614.7 1229 589.3 1170.8 576.7C1112.7 564 1054.3 564 996.2 556.8C938 549.7 880 535.3 821.8 535.3C763.7 535.3 705.3 549.7 647.2 556.8C589 564 531 564 472.8 560.5C414.7 557 356.3 550 298.2 560.8C240 571.7 182 600.3 123.8 609.3C65.7 618.3 7.30002 607.7 -50.8 602.3C-109 597 -167 597 -225.2 584.3C-283.3 571.7 -341.7 546.3 -370.8 533.7L-400 521V728Z" fill="#272727"/>
<path d="M-400 847H-370.8C-341.7 847 -283.3 847 -225.2 847C-167 847 -109 847 -50.8 847C7.30002 847 65.7 847 123.8 847C182 847 240 847 298.2 847C356.3 847 414.7 847 472.8 847C531 847 589 847 647.2 847C705.3 847 763.7 847 821.8 847C880 847 938 847 996.2 847C1054.3 847 1112.7 847 1170.8 847C1229 847 1287 847 1345.2 847C1403.3 847 1461.7 847 1490.8 847H1520V748L1490.8 753.3C1461.7 758.7 1403.3 769.3 1345.2 772.8C1287 776.3 1229 772.7 1170.8 754.7C1112.7 736.7 1054.3 704.3 996.2 693.7C938 683 880 694 821.8 701.2C763.7 708.3 705.3 711.7 647.2 718.8C589 726 531 737 472.8 738.8C414.7 740.7 356.3 733.3 298.2 731.5C240 729.7 182 733.3 123.8 737C65.7 740.7 7.30002 744.3 -50.8 751.5C-109 758.7 -167 769.3 -225.2 765.7C-283.3 762 -341.7 744 -370.8 735L-400 726V847Z" fill="#222222"/>
</g>
<rect x="-400" y="-237" width="1920" height="1080" fill="url(#paint0_linear_264_127)" fill-opacity="0.85"/>
<g clip-path="url(#clip2_264_127)">
<path d="M-328 134L-248 102.8C-168 71.7 -8 9.29999 152 37.5C312 65.7 472 184.3 632 199C792 213.7 952 124.3 1112 111.3C1272 98.3 1432 161.7 1512 193.3L1592 225" stroke="url(#paint1_linear_264_127)" stroke-opacity="0.8" stroke-width="15" stroke-linecap="round"/>
<path d="M-328 118.635L-248 87.435C-168 56.335 -8 -6.06503 152 22.135C312 50.335 472 168.935 632 183.635C792 198.335 952 108.935 1112 95.935C1272 82.935 1432 146.335 1512 177.935L1592 209.635" stroke="url(#paint2_linear_264_127)" stroke-opacity="0.8" stroke-width="3" stroke-linecap="round"/>
<path d="M1588.1 74.3204L1509.42 39.9412C1430.73 5.662 1280.67 -8.39442 1119.67 13.3746C958.668 35.1435 786.732 92.5381 626.271 100.818C465.811 109.098 309.52 13.361 150.169 -6.03697C-9.18202 -25.4349 -171.593 31.5058 -252.794 59.8763L-334 88.3466" stroke="url(#paint3_linear_264_127)" stroke-opacity="0.8" stroke-width="3" stroke-linecap="round"/>
</g>
<g clip-path="url(#clip3_264_127)">
<path d="M-29 625.487L23.2917 645.883C75.5833 666.213 180.167 707.004 284.75 688.569C389.333 670.135 493.917 592.606 598.5 582.996C703.083 573.387 807.667 631.828 912.25 640.326C1016.83 648.824 1121.42 607.379 1173.71 586.722L1226 566" stroke="url(#paint4_linear_264_127)" stroke-opacity="0.8" stroke-width="15" stroke-linecap="round"/>
</g>
<g clip-path="url(#clip4_264_127)">
<path d="M-28 643.487L24.2917 663.883C76.5833 684.213 181.167 725.004 285.75 706.569C390.333 688.135 494.917 610.606 599.5 600.996C704.083 591.387 808.667 649.828 913.25 658.326C1017.83 666.824 1122.42 625.379 1174.71 604.722L1227 584" stroke="url(#paint5_linear_264_127)" stroke-opacity="0.8" stroke-width="5" stroke-linecap="round"/>
<path d="M1241 720.487H1181.5C1129.21 740.817 982.583 779.434 878 761C773.417 742.566 718.083 687.606 613.5 677.996C508.917 668.387 393.583 715.502 289 724C184.417 732.498 90.5834 702.379 38.2917 681.722L-14 661" stroke="url(#paint6_linear_264_127)" stroke-opacity="0.8" stroke-width="2" stroke-linecap="round"/>
</g>
</g>
<defs>
<linearGradient id="paint0_linear_264_127" x1="560" y1="-237" x2="560" y2="843" gradientUnits="userSpaceOnUse">
<stop offset="0.263777" stop-color="#151515"/>
<stop offset="0.442708" stop-color="#151515" stop-opacity="0.693291"/>
<stop offset="1" stop-color="#151515" stop-opacity="0"/>
</linearGradient>
<linearGradient id="paint1_linear_264_127" x1="632" y1="30.365" x2="632" y2="225" gradientUnits="userSpaceOnUse">
<stop stop-color="#FFEB99"/>
<stop offset="0.463542" stop-color="#FFDE56"/>
<stop offset="1" stop-color="#FFDF5C"/>
</linearGradient>
<linearGradient id="paint2_linear_264_127" x1="632" y1="15" x2="632" y2="209.635" gradientUnits="userSpaceOnUse">
<stop stop-color="#FFEB99"/>
<stop offset="0.463542" stop-color="#FFDE56"/>
<stop offset="1" stop-color="#FFDF5C"/>
</linearGradient>
<linearGradient id="paint3_linear_264_127" x1="631.256" y1="-23.5496" x2="625.23" y2="126.797" gradientUnits="userSpaceOnUse">
<stop stop-color="#FFEB99"/>
<stop offset="0.463542" stop-color="#FFDE56"/>
<stop offset="1" stop-color="#FFDF5C"/>
</linearGradient>
<linearGradient id="paint4_linear_264_127" x1="598.5" y1="693.234" x2="598.5" y2="566" gradientUnits="userSpaceOnUse">
<stop stop-color="#FFEB99"/>
<stop offset="0.463542" stop-color="#FFDE56"/>
<stop offset="1" stop-color="#FFDF5C"/>
</linearGradient>
<linearGradient id="paint5_linear_264_127" x1="599.5" y1="711.234" x2="599.5" y2="584" gradientUnits="userSpaceOnUse">
<stop stop-color="#FFEB99"/>
<stop offset="0.463542" stop-color="#FFDE56"/>
<stop offset="1" stop-color="#FFDF5C"/>
</linearGradient>
<linearGradient id="paint6_linear_264_127" x1="613.5" y1="765.851" x2="613.5" y2="661" gradientUnits="userSpaceOnUse">
<stop stop-color="#FFEB99"/>
<stop offset="0.463542" stop-color="#FFDE56"/>
<stop offset="1" stop-color="#FFDF5C"/>
</linearGradient>
<clipPath id="clip0_264_127">
<rect width="1120" height="780" rx="20" fill="white"/>
</clipPath>
<clipPath id="clip1_264_127">
<rect width="1920" height="1080" fill="white" transform="translate(-400 -234)"/>
</clipPath>
<clipPath id="clip2_264_127">
<rect width="1920" height="1080" fill="white" transform="translate(-328 -481)"/>
</clipPath>
<clipPath id="clip3_264_127">
<rect width="1255" height="706" fill="white" transform="matrix(1 0 0 -1 -43 904)"/>
</clipPath>
<clipPath id="clip4_264_127">
<rect width="1255" height="706" fill="white" transform="matrix(1 0 0 -1 -43 926)"/>
</clipPath>
</defs>
</svg>
