<svg width="1920" height="1080" viewBox="0 0 1920 1080" fill="none" xmlns="http://www.w3.org/2000/svg">
<g clip-path="url(#clip0_213_12)">
<path d="M0 185L29.2 195.7C58.3 206.3 116.7 227.7 174.8 243.8C233 260 291 271 349.2 247.7C407.3 224.3 465.7 166.7 523.8 164.8C582 163 640 217 698.2 240.3C756.3 263.7 814.7 256.3 872.8 227.5C931 198.7 989 148.3 1047.2 144.8C1105.3 141.3 1163.7 184.7 1221.8 193.7C1280 202.7 1338 177.3 1396.2 168.3C1454.3 159.3 1512.7 166.7 1570.8 173.8C1629 181 1687 188 1745.2 182.5C1803.3 177 1861.7 159 1890.8 150L1920 141V0H1890.8C1861.7 0 1803.3 0 1745.2 0C1687 0 1629 0 1570.8 0C1512.7 0 1454.3 0 1396.2 0C1338 0 1280 0 1221.8 0C1163.7 0 1105.3 0 1047.2 0C989 0 931 0 872.8 0C814.7 0 756.3 0 698.2 0C640 0 582 0 523.8 0C465.7 0 407.3 0 349.2 0C291 0 233 0 174.8 0C116.7 0 58.3 0 29.2 0H0V185Z" fill="#FFF2BA"/>
<path d="M0 271L29.2 281.8C58.3 292.7 116.7 314.3 174.8 336C233 357.7 291 379.3 349.2 364.8C407.3 350.3 465.7 299.7 523.8 290.7C582 281.7 640 314.3 698.2 328.8C756.3 343.3 814.7 339.7 872.8 325.2C931 310.7 989 285.3 1047.2 297.8C1105.3 310.3 1163.7 360.7 1221.8 369.7C1280 378.7 1338 346.3 1396.2 337.3C1454.3 328.3 1512.7 342.7 1570.8 335.5C1629 328.3 1687 299.7 1745.2 280C1803.3 260.3 1861.7 249.7 1890.8 244.3L1920 239V139L1890.8 148C1861.7 157 1803.3 175 1745.2 180.5C1687 186 1629 179 1570.8 171.8C1512.7 164.7 1454.3 157.3 1396.2 166.3C1338 175.3 1280 200.7 1221.8 191.7C1163.7 182.7 1105.3 139.3 1047.2 142.8C989 146.3 931 196.7 872.8 225.5C814.7 254.3 756.3 261.7 698.2 238.3C640 215 582 161 523.8 162.8C465.7 164.7 407.3 222.3 349.2 245.7C291 269 233 258 174.8 241.8C116.7 225.7 58.3 204.3 29.2 193.7L0 183V271Z" fill="#FFEFAA"/>
<path d="M0 519L29.2 511.8C58.3 504.7 116.7 490.3 174.8 540.8C233 591.3 291 706.7 349.2 746.3C407.3 786 465.7 750 523.8 730.2C582 710.3 640 706.7 698.2 715.7C756.3 724.7 814.7 746.3 872.8 710.3C931 674.3 989 580.7 1047.2 564.5C1105.3 548.3 1163.7 609.7 1221.8 627.7C1280 645.7 1338 620.3 1396.2 602.3C1454.3 584.3 1512.7 573.7 1570.8 580.8C1629 588 1687 613 1745.2 641.7C1803.3 670.3 1861.7 702.7 1890.8 718.8L1920 735V237L1890.8 242.3C1861.7 247.7 1803.3 258.3 1745.2 278C1687 297.7 1629 326.3 1570.8 333.5C1512.7 340.7 1454.3 326.3 1396.2 335.3C1338 344.3 1280 376.7 1221.8 367.7C1163.7 358.7 1105.3 308.3 1047.2 295.8C989 283.3 931 308.7 872.8 323.2C814.7 337.7 756.3 341.3 698.2 326.8C640 312.3 582 279.7 523.8 288.7C465.7 297.7 407.3 348.3 349.2 362.8C291 377.3 233 355.7 174.8 334C116.7 312.3 58.3 290.7 29.2 279.8L0 269V519Z" fill="#FFEB99"/>
<path d="M0 887L29.2 879.7C58.3 872.3 116.7 857.7 174.8 870.2C233 882.7 291 922.3 349.2 936.8C407.3 951.3 465.7 940.7 523.8 924.5C582 908.3 640 886.7 698.2 895.7C756.3 904.7 814.7 944.3 872.8 964.2C931 984 989 984 1047.2 982.2C1105.3 980.3 1163.7 976.7 1221.8 973C1280 969.3 1338 965.7 1396.2 954.8C1454.3 944 1512.7 926 1570.8 927.8C1629 929.7 1687 951.3 1745.2 964C1803.3 976.7 1861.7 980.3 1890.8 982.2L1920 984V733L1890.8 716.8C1861.7 700.7 1803.3 668.3 1745.2 639.7C1687 611 1629 586 1570.8 578.8C1512.7 571.7 1454.3 582.3 1396.2 600.3C1338 618.3 1280 643.7 1221.8 625.7C1163.7 607.7 1105.3 546.3 1047.2 562.5C989 578.7 931 672.3 872.8 708.3C814.7 744.3 756.3 722.7 698.2 713.7C640 704.7 582 708.3 523.8 728.2C465.7 748 407.3 784 349.2 744.3C291 704.7 233 589.3 174.8 538.8C116.7 488.3 58.3 502.7 29.2 509.8L0 517V887Z" fill="#F6DF84"/>
<path d="M0 1081H29.2C58.3 1081 116.7 1081 174.8 1081C233 1081 291 1081 349.2 1081C407.3 1081 465.7 1081 523.8 1081C582 1081 640 1081 698.2 1081C756.3 1081 814.7 1081 872.8 1081C931 1081 989 1081 1047.2 1081C1105.3 1081 1163.7 1081 1221.8 1081C1280 1081 1338 1081 1396.2 1081C1454.3 1081 1512.7 1081 1570.8 1081C1629 1081 1687 1081 1745.2 1081C1803.3 1081 1861.7 1081 1890.8 1081H1920V982L1890.8 980.2C1861.7 978.3 1803.3 974.7 1745.2 962C1687 949.3 1629 927.7 1570.8 925.8C1512.7 924 1454.3 942 1396.2 952.8C1338 963.7 1280 967.3 1221.8 971C1163.7 974.7 1105.3 978.3 1047.2 980.2C989 982 931 982 872.8 962.2C814.7 942.3 756.3 902.7 698.2 893.7C640 884.7 582 906.3 523.8 922.5C465.7 938.7 407.3 949.3 349.2 934.8C291 920.3 233 880.7 174.8 868.2C116.7 855.7 58.3 870.3 29.2 877.7L0 885V1081Z" fill="#EED36F"/>
</g>
<rect width="1920" height="1080" fill="url(#paint0_linear_213_12)" fill-opacity="0.85"/>
<defs>
<linearGradient id="paint0_linear_213_12" x1="960" y1="0" x2="960" y2="1080" gradientUnits="userSpaceOnUse">
<stop stop-color="#151515"/>
<stop offset="1" stop-color="#151515" stop-opacity="0"/>
</linearGradient>
<clipPath id="clip0_213_12">
<rect width="1920" height="1080" fill="white"/>
</clipPath>
</defs>
</svg>
