<svg width="1120" height="890" viewBox="0 0 1120 890" fill="none" xmlns="http://www.w3.org/2000/svg">
<g clip-path="url(#clip0_521_246)">
<rect width="1120" height="890" rx="20" fill="#2D2D2D"/>
<g clip-path="url(#clip1_521_246)">
<path d="M-400 158L-370.8 170.5C-341.7 183 -283.3 208 -225.2 209.8C-167 211.7 -109 190.3 -50.8 194C7.30002 197.7 65.7 226.3 123.8 220.8C182 215.3 240 175.7 298.2 188.3C356.3 201 414.7 266 472.8 267.8C531 269.7 589 208.3 647.2 195.7C705.3 183 763.7 219 821.8 244.2C880 269.3 938 283.7 996.2 296.3C1054.3 309 1112.7 320 1170.8 294.8C1229 269.7 1287 208.3 1345.2 197.5C1403.3 186.7 1461.7 226.3 1490.8 246.2L1520 266V-124H1490.8C1461.7 -124 1403.3 -124 1345.2 -124C1287 -124 1229 -124 1170.8 -124C1112.7 -124 1054.3 -124 996.2 -124C938 -124 880 -124 821.8 -124C763.7 -124 705.3 -124 647.2 -124C589 -124 531 -124 472.8 -124C414.7 -124 356.3 -124 298.2 -124C240 -124 182 -124 123.8 -124C65.7 -124 7.30002 -124 -50.8 -124C-109 -124 -167 -124 -225.2 -124C-283.3 -124 -341.7 -124 -370.8 -124H-400V158Z" fill="#505050"/>
<path d="M-400 525L-370.8 534C-341.7 543 -283.3 561 -225.2 561C-167 561 -109 543 -50.8 548.3C7.30002 553.7 65.7 582.3 123.8 559C182 535.7 240 460.3 298.2 444.2C356.3 428 414.7 471 472.8 478.2C531 485.3 589 456.7 647.2 438.7C705.3 420.7 763.7 413.3 821.8 415.2C880 417 938 428 996.2 456.8C1054.3 485.7 1112.7 532.3 1170.8 543C1229 553.7 1287 528.3 1345.2 512.2C1403.3 496 1461.7 489 1490.8 485.5L1520 482V264L1490.8 244.2C1461.7 224.3 1403.3 184.7 1345.2 195.5C1287 206.3 1229 267.7 1170.8 292.8C1112.7 318 1054.3 307 996.2 294.3C938 281.7 880 267.3 821.8 242.2C763.7 217 705.3 181 647.2 193.7C589 206.3 531 267.7 472.8 265.8C414.7 264 356.3 199 298.2 186.3C240 173.7 182 213.3 123.8 218.8C65.7 224.3 7.30002 195.7 -50.8 192C-109 188.3 -167 209.7 -225.2 207.8C-283.3 206 -341.7 181 -370.8 168.5L-400 156V525Z" fill="#3E3E3E"/>
<path d="M-400 633L-370.8 645.7C-341.7 658.3 -283.3 683.7 -225.2 696.3C-167 709 -109 709 -50.8 714.3C7.30002 719.7 65.7 730.3 123.8 721.3C182 712.3 240 683.7 298.2 672.8C356.3 662 414.7 669 472.8 672.5C531 676 589 676 647.2 668.8C705.3 661.7 763.7 647.3 821.8 647.3C880 647.3 938 661.7 996.2 668.8C1054.3 676 1112.7 676 1170.8 688.7C1229 701.3 1287 726.7 1345.2 737.5C1403.3 748.3 1461.7 744.7 1490.8 742.8L1520 741V480L1490.8 483.5C1461.7 487 1403.3 494 1345.2 510.2C1287 526.3 1229 551.7 1170.8 541C1112.7 530.3 1054.3 483.7 996.2 454.8C938 426 880 415 821.8 413.2C763.7 411.3 705.3 418.7 647.2 436.7C589 454.7 531 483.3 472.8 476.2C414.7 469 356.3 426 298.2 442.2C240 458.3 182 533.7 123.8 557C65.7 580.3 7.30002 551.7 -50.8 546.3C-109 541 -167 559 -225.2 559C-283.3 559 -341.7 541 -370.8 532L-400 523V633Z" fill="#2D2D2D"/>
<path d="M-400 838L-370.8 847C-341.7 856 -283.3 874 -225.2 877.7C-167 881.3 -109 870.7 -50.8 863.5C7.30002 856.3 65.7 852.7 123.8 849C182 845.3 240 841.7 298.2 843.5C356.3 845.3 414.7 852.7 472.8 850.8C531 849 589 838 647.2 830.8C705.3 823.7 763.7 820.3 821.8 813.2C880 806 938 795 996.2 805.7C1054.3 816.3 1112.7 848.7 1170.8 866.7C1229 884.7 1287 888.3 1345.2 884.8C1403.3 881.3 1461.7 870.7 1490.8 865.3L1520 860V739L1490.8 740.8C1461.7 742.7 1403.3 746.3 1345.2 735.5C1287 724.7 1229 699.3 1170.8 686.7C1112.7 674 1054.3 674 996.2 666.8C938 659.7 880 645.3 821.8 645.3C763.7 645.3 705.3 659.7 647.2 666.8C589 674 531 674 472.8 670.5C414.7 667 356.3 660 298.2 670.8C240 681.7 182 710.3 123.8 719.3C65.7 728.3 7.30002 717.7 -50.8 712.3C-109 707 -167 707 -225.2 694.3C-283.3 681.7 -341.7 656.3 -370.8 643.7L-400 631V838Z" fill="#272727"/>
<path d="M-400 957H-370.8C-341.7 957 -283.3 957 -225.2 957C-167 957 -109 957 -50.8 957C7.30002 957 65.7 957 123.8 957C182 957 240 957 298.2 957C356.3 957 414.7 957 472.8 957C531 957 589 957 647.2 957C705.3 957 763.7 957 821.8 957C880 957 938 957 996.2 957C1054.3 957 1112.7 957 1170.8 957C1229 957 1287 957 1345.2 957C1403.3 957 1461.7 957 1490.8 957H1520V858L1490.8 863.3C1461.7 868.7 1403.3 879.3 1345.2 882.8C1287 886.3 1229 882.7 1170.8 864.7C1112.7 846.7 1054.3 814.3 996.2 803.7C938 793 880 804 821.8 811.2C763.7 818.3 705.3 821.7 647.2 828.8C589 836 531 847 472.8 848.8C414.7 850.7 356.3 843.3 298.2 841.5C240 839.7 182 843.3 123.8 847C65.7 850.7 7.30002 854.3 -50.8 861.5C-109 868.7 -167 879.3 -225.2 875.7C-283.3 872 -341.7 854 -370.8 845L-400 836V957Z" fill="#222222"/>
</g>
<rect x="-400" y="-127" width="1920" height="1080" fill="url(#paint0_linear_521_246)" fill-opacity="0.85"/>
<g clip-path="url(#clip2_521_246)">
<path d="M-151 294L-77.9583 262.8C-4.91666 231.7 141.167 169.3 287.25 197.5C433.333 225.7 579.417 344.3 725.5 359C871.583 373.7 1017.67 284.3 1163.75 271.3C1309.83 258.3 1455.92 321.7 1528.96 353.3L1602 385" stroke="url(#paint1_linear_521_246)" stroke-opacity="0.8" stroke-width="15" stroke-linecap="round"/>
<path d="M-151 278.635L-77.9583 247.435C-4.91666 216.335 141.167 153.935 287.25 182.135C433.333 210.335 579.417 328.935 725.5 343.635C871.583 358.335 1017.67 268.935 1163.75 255.935C1309.83 242.935 1455.92 306.335 1528.96 337.935L1602 369.635" stroke="url(#paint2_linear_521_246)" stroke-opacity="0.8" stroke-width="3" stroke-linecap="round"/>
<path d="M1598.44 234.321L1526.6 199.941C1454.76 165.662 1317.75 151.606 1170.75 173.375C1023.76 195.144 866.774 252.538 720.27 260.818C573.766 269.098 431.069 173.361 285.579 153.963C140.088 134.565 -8.19675 191.506 -82.3354 219.876L-156.478 248.347" stroke="url(#paint3_linear_521_246)" stroke-opacity="0.8" stroke-width="3" stroke-linecap="round"/>
</g>
<g clip-path="url(#clip3_521_246)">
<path d="M-645.853 694.487L-559.394 714.883C-472.936 735.213 -300.019 776.004 -127.103 757.569C45.8141 739.135 218.731 661.606 391.647 651.996C564.564 642.387 737.481 700.828 910.397 709.326C1083.31 717.824 1256.23 676.38 1342.69 655.722L1429.15 635" stroke="url(#paint4_linear_521_246)" stroke-opacity="0.8" stroke-width="15" stroke-linecap="round"/>
</g>
<g clip-path="url(#clip4_521_246)">
<path d="M-644.199 712.487L-557.741 732.883C-471.283 753.213 -298.366 794.004 -125.449 775.569C47.4674 757.135 220.384 679.606 393.301 669.996C566.217 660.387 739.134 718.828 912.051 727.326C1084.97 735.824 1257.88 694.38 1344.34 673.722L1430.8 653" stroke="url(#paint5_linear_521_246)" stroke-opacity="0.8" stroke-width="5" stroke-linecap="round"/>
<path d="M1453.95 789.487H1355.57C1269.11 809.817 1026.69 848.435 853.769 830C680.852 811.566 589.365 756.606 416.448 746.996C243.532 737.387 52.841 784.502 -120.076 793C-292.992 801.498 -448.135 771.38 -534.593 750.722L-621.052 730" stroke="url(#paint6_linear_521_246)" stroke-opacity="0.8" stroke-width="2" stroke-linecap="round"/>
</g>
</g>
<defs>
<linearGradient id="paint0_linear_521_246" x1="560" y1="-127" x2="560" y2="953" gradientUnits="userSpaceOnUse">
<stop offset="0.263777" stop-color="#151515"/>
<stop offset="0.442708" stop-color="#151515" stop-opacity="0.693291"/>
<stop offset="1" stop-color="#151515" stop-opacity="0"/>
</linearGradient>
<linearGradient id="paint1_linear_521_246" x1="725.5" y1="190.365" x2="725.5" y2="385" gradientUnits="userSpaceOnUse">
<stop stop-color="#FFEB99"/>
<stop offset="0.463542" stop-color="#FFDE56"/>
<stop offset="1" stop-color="#FFDF5C"/>
</linearGradient>
<linearGradient id="paint2_linear_521_246" x1="725.5" y1="175" x2="725.5" y2="369.635" gradientUnits="userSpaceOnUse">
<stop stop-color="#FFEB99"/>
<stop offset="0.463542" stop-color="#FFDE56"/>
<stop offset="1" stop-color="#FFDF5C"/>
</linearGradient>
<linearGradient id="paint3_linear_521_246" x1="724.821" y1="136.45" x2="718.223" y2="286.749" gradientUnits="userSpaceOnUse">
<stop stop-color="#FFEB99"/>
<stop offset="0.463542" stop-color="#FFDE56"/>
<stop offset="1" stop-color="#FFDF5C"/>
</linearGradient>
<linearGradient id="paint4_linear_521_246" x1="391.647" y1="762.234" x2="391.647" y2="635" gradientUnits="userSpaceOnUse">
<stop stop-color="#FFEB99"/>
<stop offset="0.463542" stop-color="#FFDE56"/>
<stop offset="1" stop-color="#FFDF5C"/>
</linearGradient>
<linearGradient id="paint5_linear_521_246" x1="393.301" y1="780.234" x2="393.301" y2="653" gradientUnits="userSpaceOnUse">
<stop stop-color="#FFEB99"/>
<stop offset="0.463542" stop-color="#FFDE56"/>
<stop offset="1" stop-color="#FFDF5C"/>
</linearGradient>
<linearGradient id="paint6_linear_521_246" x1="416.448" y1="834.851" x2="416.448" y2="730" gradientUnits="userSpaceOnUse">
<stop stop-color="#FFEB99"/>
<stop offset="0.463542" stop-color="#FFDE56"/>
<stop offset="1" stop-color="#FFDF5C"/>
</linearGradient>
<clipPath id="clip0_521_246">
<rect width="1120" height="890" rx="20" fill="white"/>
</clipPath>
<clipPath id="clip1_521_246">
<rect width="1920" height="1080" fill="white" transform="translate(-400 -124)"/>
</clipPath>
<clipPath id="clip2_521_246">
<rect width="1753" height="1080" fill="white" transform="translate(-151 -321)"/>
</clipPath>
<clipPath id="clip3_521_246">
<rect width="2075" height="706" fill="white" transform="matrix(1 0 0 -1 -669 973)"/>
</clipPath>
<clipPath id="clip4_521_246">
<rect width="2075" height="706" fill="white" transform="matrix(1 0 0 -1 -669 995)"/>
</clipPath>
</defs>
</svg>
