<svg width="1920" height="1080" viewBox="0 0 1920 1080" fill="none" xmlns="http://www.w3.org/2000/svg">
<g clip-path="url(#clip0_217_2)">
<rect width="1920" height="1080" fill="#2F353B"/>
<g clip-path="url(#clip1_217_2)">
<path d="M0 282L29.2 294.5C58.3 307 116.7 332 174.8 333.8C233 335.7 291 314.3 349.2 318C407.3 321.7 465.7 350.3 523.8 344.8C582 339.3 640 299.7 698.2 312.3C756.3 325 814.7 390 872.8 391.8C931 393.7 989 332.3 1047.2 319.7C1105.3 307 1163.7 343 1221.8 368.2C1280 393.3 1338 407.7 1396.2 420.3C1454.3 433 1512.7 444 1570.8 418.8C1629 393.7 1687 332.3 1745.2 321.5C1803.3 310.7 1861.7 350.3 1890.8 370.2L1920 390V0H1890.8C1861.7 0 1803.3 0 1745.2 0C1687 0 1629 0 1570.8 0C1512.7 0 1454.3 0 1396.2 0C1338 0 1280 0 1221.8 0C1163.7 0 1105.3 0 1047.2 0C989 0 931 0 872.8 0C814.7 0 756.3 0 698.2 0C640 0 582 0 523.8 0C465.7 0 407.3 0 349.2 0C291 0 233 0 174.8 0C116.7 0 58.3 0 29.2 0H0V282Z" fill="#505050"/>
<path d="M0 649L29.2 658C58.3 667 116.7 685 174.8 685C233 685 291 667 349.2 672.3C407.3 677.7 465.7 706.3 523.8 683C582 659.7 640 584.3 698.2 568.2C756.3 552 814.7 595 872.8 602.2C931 609.3 989 580.7 1047.2 562.7C1105.3 544.7 1163.7 537.3 1221.8 539.2C1280 541 1338 552 1396.2 580.8C1454.3 609.7 1512.7 656.3 1570.8 667C1629 677.7 1687 652.3 1745.2 636.2C1803.3 620 1861.7 613 1890.8 609.5L1920 606V388L1890.8 368.2C1861.7 348.3 1803.3 308.7 1745.2 319.5C1687 330.3 1629 391.7 1570.8 416.8C1512.7 442 1454.3 431 1396.2 418.3C1338 405.7 1280 391.3 1221.8 366.2C1163.7 341 1105.3 305 1047.2 317.7C989 330.3 931 391.7 872.8 389.8C814.7 388 756.3 323 698.2 310.3C640 297.7 582 337.3 523.8 342.8C465.7 348.3 407.3 319.7 349.2 316C291 312.3 233 333.7 174.8 331.8C116.7 330 58.3 305 29.2 292.5L0 280V649Z" fill="#3E3E3E"/>
<path d="M0 757L29.2 769.7C58.3 782.3 116.7 807.7 174.8 820.3C233 833 291 833 349.2 838.3C407.3 843.7 465.7 854.3 523.8 845.3C582 836.3 640 807.7 698.2 796.8C756.3 786 814.7 793 872.8 796.5C931 800 989 800 1047.2 792.8C1105.3 785.7 1163.7 771.3 1221.8 771.3C1280 771.3 1338 785.7 1396.2 792.8C1454.3 800 1512.7 800 1570.8 812.7C1629 825.3 1687 850.7 1745.2 861.5C1803.3 872.3 1861.7 868.7 1890.8 866.8L1920 865V604L1890.8 607.5C1861.7 611 1803.3 618 1745.2 634.2C1687 650.3 1629 675.7 1570.8 665C1512.7 654.3 1454.3 607.7 1396.2 578.8C1338 550 1280 539 1221.8 537.2C1163.7 535.3 1105.3 542.7 1047.2 560.7C989 578.7 931 607.3 872.8 600.2C814.7 593 756.3 550 698.2 566.2C640 582.3 582 657.7 523.8 681C465.7 704.3 407.3 675.7 349.2 670.3C291 665 233 683 174.8 683C116.7 683 58.3 665 29.2 656L0 647V757Z" fill="#2D2D2D"/>
<path d="M0 962L29.2 971C58.3 980 116.7 998 174.8 1001.7C233 1005.3 291 994.7 349.2 987.5C407.3 980.3 465.7 976.7 523.8 973C582 969.3 640 965.7 698.2 967.5C756.3 969.3 814.7 976.7 872.8 974.8C931 973 989 962 1047.2 954.8C1105.3 947.7 1163.7 944.3 1221.8 937.2C1280 930 1338 919 1396.2 929.7C1454.3 940.3 1512.7 972.7 1570.8 990.7C1629 1008.7 1687 1012.3 1745.2 1008.8C1803.3 1005.3 1861.7 994.7 1890.8 989.3L1920 984V863L1890.8 864.8C1861.7 866.7 1803.3 870.3 1745.2 859.5C1687 848.7 1629 823.3 1570.8 810.7C1512.7 798 1454.3 798 1396.2 790.8C1338 783.7 1280 769.3 1221.8 769.3C1163.7 769.3 1105.3 783.7 1047.2 790.8C989 798 931 798 872.8 794.5C814.7 791 756.3 784 698.2 794.8C640 805.7 582 834.3 523.8 843.3C465.7 852.3 407.3 841.7 349.2 836.3C291 831 233 831 174.8 818.3C116.7 805.7 58.3 780.3 29.2 767.7L0 755V962Z" fill="#272727"/>
<path d="M0 1081H29.2C58.3 1081 116.7 1081 174.8 1081C233 1081 291 1081 349.2 1081C407.3 1081 465.7 1081 523.8 1081C582 1081 640 1081 698.2 1081C756.3 1081 814.7 1081 872.8 1081C931 1081 989 1081 1047.2 1081C1105.3 1081 1163.7 1081 1221.8 1081C1280 1081 1338 1081 1396.2 1081C1454.3 1081 1512.7 1081 1570.8 1081C1629 1081 1687 1081 1745.2 1081C1803.3 1081 1861.7 1081 1890.8 1081H1920V982L1890.8 987.3C1861.7 992.7 1803.3 1003.3 1745.2 1006.8C1687 1010.3 1629 1006.7 1570.8 988.7C1512.7 970.7 1454.3 938.3 1396.2 927.7C1338 917 1280 928 1221.8 935.2C1163.7 942.3 1105.3 945.7 1047.2 952.8C989 960 931 971 872.8 972.8C814.7 974.7 756.3 967.3 698.2 965.5C640 963.7 582 967.3 523.8 971C465.7 974.7 407.3 978.3 349.2 985.5C291 992.7 233 1003.3 174.8 999.7C116.7 996 58.3 978 29.2 969L0 960V1081Z" fill="#222222"/>
</g>
<rect width="1920" height="1080" fill="url(#paint0_linear_217_2)" fill-opacity="0.85"/>
<g opacity="0.85">
<g clip-path="url(#clip2_217_2)">
<path d="M-67.3506 739.763L20.9827 774.198C109.316 808.524 285.983 877.395 462.649 846.27C639.316 815.146 815.983 684.246 992.649 668.022C1169.32 651.798 1345.98 750.469 1522.65 764.817C1699.32 779.165 1875.98 709.19 1964.32 674.313L2052.65 639.326" stroke="url(#paint1_linear_217_2)" stroke-opacity="0.8" stroke-width="15" stroke-linecap="round"/>
</g>
<g clip-path="url(#clip3_217_2)">
<path d="M-65.6614 770.009L22.672 804.445C111.005 838.77 287.672 907.641 464.339 876.517C641.005 845.392 817.672 714.493 994.339 698.269C1171.01 682.044 1347.67 780.715 1524.34 795.063C1701.01 809.411 1877.67 739.437 1966.01 704.56L2054.34 669.572" stroke="url(#paint2_linear_217_2)" stroke-opacity="0.8" stroke-width="5" stroke-linecap="round"/>
<path d="M2077.99 900.015H1977.48C1889.14 934.34 1641.46 999.541 1464.79 968.416C1288.13 937.292 1194.65 844.499 1017.99 828.274C841.322 812.05 646.496 891.598 469.829 905.946C293.162 920.294 134.655 869.442 46.3217 834.565L-42.0118 799.578" stroke="url(#paint3_linear_217_2)" stroke-opacity="0.8" stroke-width="2" stroke-linecap="round"/>
</g>
<g clip-path="url(#clip4_217_2)">
<path d="M0 351L82.5 319.8C165 288.7 330 226.3 495 254.5C660 282.7 825 401.3 990 416C1155 430.7 1320 341.3 1485 328.3C1650 315.3 1815 378.7 1897.5 410.3L1980 442" stroke="url(#paint4_linear_217_2)" stroke-opacity="0.8" stroke-width="15" stroke-linecap="round"/>
<path d="M0 335.635L82.5 304.435C165 273.335 330 210.935 495 239.135C660 267.335 825 385.935 990 400.635C1155 415.335 1320 325.935 1485 312.935C1650 299.935 1815 363.335 1897.5 394.935L1980 426.635" stroke="url(#paint5_linear_217_2)" stroke-opacity="0.8" stroke-width="3" stroke-linecap="round"/>
<path d="M1975.98 291.32L1894.84 256.941C1813.69 222.662 1658.94 208.606 1492.91 230.375C1326.88 252.143 1149.57 309.538 984.092 317.818C818.617 326.098 657.442 230.361 493.111 210.963C328.781 191.565 161.294 248.506 77.5554 276.876L-6.18778 305.347" stroke="url(#paint6_linear_217_2)" stroke-opacity="0.8" stroke-width="3" stroke-linecap="round"/>
</g>
</g>
</g>
<defs>
<linearGradient id="paint0_linear_217_2" x1="960" y1="0" x2="960" y2="1080" gradientUnits="userSpaceOnUse">
<stop offset="0.263777" stop-color="#151515"/>
<stop offset="0.442708" stop-color="#151515" stop-opacity="0.693291"/>
<stop offset="1" stop-color="#151515" stop-opacity="0"/>
</linearGradient>
<linearGradient id="paint1_linear_217_2" x1="992.649" y1="854.145" x2="992.649" y2="639.326" gradientUnits="userSpaceOnUse">
<stop stop-color="#FFEB99"/>
<stop offset="0.463542" stop-color="#FFDE56"/>
<stop offset="1" stop-color="#FFDF5C"/>
</linearGradient>
<linearGradient id="paint2_linear_217_2" x1="994.339" y1="884.392" x2="994.339" y2="669.572" gradientUnits="userSpaceOnUse">
<stop stop-color="#FFEB99"/>
<stop offset="0.463542" stop-color="#FFDE56"/>
<stop offset="1" stop-color="#FFDF5C"/>
</linearGradient>
<linearGradient id="paint3_linear_217_2" x1="1017.99" y1="976.606" x2="1017.99" y2="799.578" gradientUnits="userSpaceOnUse">
<stop stop-color="#FFEB99"/>
<stop offset="0.463542" stop-color="#FFDE56"/>
<stop offset="1" stop-color="#FFDF5C"/>
</linearGradient>
<linearGradient id="paint4_linear_217_2" x1="990" y1="247.365" x2="990" y2="442" gradientUnits="userSpaceOnUse">
<stop stop-color="#FFEB99"/>
<stop offset="0.463542" stop-color="#FFDE56"/>
<stop offset="1" stop-color="#FFDF5C"/>
</linearGradient>
<linearGradient id="paint5_linear_217_2" x1="990" y1="232" x2="990" y2="426.635" gradientUnits="userSpaceOnUse">
<stop stop-color="#FFEB99"/>
<stop offset="0.463542" stop-color="#FFDE56"/>
<stop offset="1" stop-color="#FFDF5C"/>
</linearGradient>
<linearGradient id="paint6_linear_217_2" x1="989.233" y1="193.45" x2="983.388" y2="343.811" gradientUnits="userSpaceOnUse">
<stop stop-color="#FFEB99"/>
<stop offset="0.463542" stop-color="#FFDE56"/>
<stop offset="1" stop-color="#FFDF5C"/>
</linearGradient>
<clipPath id="clip0_217_2">
<rect width="1920" height="1080" fill="white"/>
</clipPath>
<clipPath id="clip1_217_2">
<rect width="1920" height="1080" fill="white"/>
</clipPath>
<clipPath id="clip2_217_2">
<rect width="1920" height="1080" fill="white" transform="matrix(1 0 0 -1 0 1080)"/>
</clipPath>
<clipPath id="clip3_217_2">
<rect width="1920" height="1081" fill="white" transform="matrix(1 0 0 -1 0 1081)"/>
</clipPath>
<clipPath id="clip4_217_2">
<rect width="1920" height="1080" fill="white"/>
</clipPath>
</defs>
</svg>
