<svg width="120" height="120" viewBox="0 0 120 120" fill="none" xmlns="http://www.w3.org/2000/svg">
<path d="M118.554 53.5929C118.162 53.1634 117.608 52.9164 117.026 52.9164H112.956C112.956 52.9164 98.8684 26.1138 98.14 24.7234C97.3587 23.2326 96.1763 21.9275 94.4079 21.9275C85.8014 21.9275 77.7698 20.0911 71.7927 16.7561C68.8105 15.0923 66.5619 13.1459 65.1881 11.1002V5.18821C65.1881 2.32276 62.8653 0 59.9999 0C57.1344 0 54.8117 2.32276 54.8117 5.18821V11.1002C53.4378 13.1459 51.1893 15.0923 48.2071 16.7561C42.2297 20.0908 34.1981 21.9275 25.5917 21.9275C23.8233 21.9275 22.7581 23.0121 21.8595 24.7234C19.7585 28.7245 7.04354 52.9164 7.04354 52.9164H2.97364C2.39205 52.9164 1.83717 53.1615 1.44546 53.5914C1.05375 54.0215 0.861782 54.5963 0.914961 55.1756C2.05481 67.551 12.4642 77.2419 25.1372 77.2419C37.8102 77.2419 48.2195 67.551 49.3594 55.1756C49.4126 54.5969 49.2196 54.0225 48.8281 53.5929C48.4367 53.1634 47.882 52.9164 47.3007 52.9164H43.2305L30.9373 29.4963C40.5153 28.7282 48.8758 25.9188 54.8119 21.7915V107.029H31.2966C27.7149 107.029 24.8113 109.933 24.8113 113.515C24.8113 117.096 27.7149 120 31.2966 120H87.7062C91.2879 120 94.1915 117.096 94.1915 113.515C94.1915 109.933 91.2879 107.029 87.7062 107.029H65.1884V21.7915C71.1245 25.9188 79.485 28.7284 89.0627 29.4963L76.7695 52.9164H72.6993C72.1177 52.9164 71.5629 53.1615 71.1712 53.5914C70.7794 54.0215 70.5875 54.5963 70.6409 55.1756C71.7805 67.551 82.1901 77.2419 94.8631 77.2419C107.536 77.2419 117.945 67.551 119.085 55.1756C119.139 54.5969 118.945 54.0228 118.554 53.5929ZM34.4412 52.9164H15.8329L25.1369 35.1909L34.4412 52.9164ZM85.5586 52.9164L94.8629 35.1906L104.167 52.9164H85.5586Z" fill="#151515" fill-opacity="0.15"/>
</svg>
