<svg width="24" height="24" viewBox="0 0 24 24" fill="none" xmlns="http://www.w3.org/2000/svg">
<path d="M9.07689 2.41025C8.35894 2.20513 7.23074 2 6.41023 2C5.58973 2 4.46153 2.20513 3.74358 2.41025C3.02564 2.51282 2.51282 3.02564 2.41025 3.74358C2.20513 4.46153 2 5.58973 2 6.41023C2 7.23074 2.20513 8.35894 2.30769 9.07689C2.41025 9.79483 3.02564 10.3076 3.64102 10.4102C4.35896 10.5128 5.48716 10.7179 6.30767 10.7179C7.12818 10.7179 8.25638 10.5128 8.97432 10.4102C9.69227 10.3076 10.2051 9.69227 10.3077 9.07689C10.4102 8.35894 10.6153 7.23074 10.6153 6.41023C10.6153 5.58973 10.4102 4.46153 10.3077 3.74358C10.3077 3.02564 9.79483 2.51282 9.07689 2.41025Z" fill="#2D2D2D"/>
<path d="M9.07687 13.6922C8.35892 13.5896 7.23072 13.3845 6.41021 13.3845C5.58971 13.3845 4.46151 13.5896 3.74356 13.6922C3.02562 13.7948 2.5128 14.4101 2.41023 15.0255C2.30767 15.7435 2.10254 16.8717 2.10254 17.6922C2.10254 18.5127 2.30767 19.6409 2.41023 20.3588C2.5128 21.0768 3.12818 21.5896 3.74356 21.6922C4.46151 21.7947 5.58971 21.9999 6.41021 21.9999C7.23072 21.9999 8.35892 21.7947 9.07687 21.6922C9.79481 21.5896 10.3076 20.9742 10.4102 20.3588C10.5127 19.6409 10.7179 18.5127 10.7179 17.6922C10.7179 16.8717 10.5127 15.7435 10.4102 15.0255C10.3076 14.3076 9.79481 13.7948 9.07687 13.6922Z" fill="#2D2D2D"/>
<path d="M15.0258 10.4104C15.7438 10.513 16.872 10.7181 17.6925 10.7181C18.513 10.7181 19.6412 10.513 20.3591 10.4104C21.0771 10.3078 21.5899 9.69248 21.6924 9.0771C21.795 8.35916 22.0001 7.23096 22.0001 6.41045C22.0001 5.58994 21.795 4.46174 21.6924 3.74379C21.5899 3.02585 20.9745 2.51303 20.3591 2.41047C19.6412 2.3079 18.513 2.10278 17.6925 2.10278C16.872 2.10278 15.7438 2.3079 15.0258 2.41047C14.3079 2.51303 13.795 3.12841 13.6925 3.74379C13.5899 4.46174 13.3848 5.58994 13.3848 6.41045C13.3848 7.23096 13.5899 8.35916 13.6925 9.0771C13.795 9.79505 14.3079 10.3078 15.0258 10.4104Z" fill="#2D2D2D"/>
<path d="M20.3591 13.6922C19.6412 13.5896 18.513 13.3845 17.6925 13.3845C16.872 13.3845 15.7438 13.5896 15.0258 13.6922C14.3079 13.7948 13.795 14.4101 13.6925 15.0255C13.5899 15.7435 13.3848 16.8717 13.3848 17.6922C13.3848 18.5127 13.5899 19.6409 13.6925 20.3588C13.795 21.0768 14.4104 21.5896 15.0258 21.6922C15.7438 21.7947 16.872 21.9999 17.6925 21.9999C18.513 21.9999 19.6412 21.7947 20.3591 21.6922C21.0771 21.5896 21.5899 20.9742 21.6924 20.3588C21.795 19.6409 22.0001 18.5127 22.0001 17.6922C22.0001 16.8717 21.795 15.7435 21.6924 15.0255C21.5899 14.3076 21.0771 13.7948 20.3591 13.6922Z" fill="#2D2D2D"/>
</svg>
