<svg width="55" height="55" viewBox="0 0 55 55" fill="none" xmlns="http://www.w3.org/2000/svg">
<g clip-path="url(#clip0_521_304)">
<path d="M27.4122 0.823486C12.6545 0.823486 0.647461 12.8295 0.647461 27.5882C0.647461 42.3469 12.6545 54.3529 27.4122 54.3529C42.1698 54.3529 54.1769 42.3469 54.1769 27.5882C54.1769 12.8295 42.1698 0.823486 27.4122 0.823486ZM40.2798 29.647H29.471V40.9705C29.471 42.107 28.5486 43.0294 27.4122 43.0294C26.2757 43.0294 25.3533 42.107 25.3533 40.9705V29.647H14.5445C13.408 29.647 12.4857 28.7247 12.4857 27.5882C12.4857 26.4517 13.408 25.5294 14.5445 25.5294H25.3533V15.2353C25.3533 14.0988 26.2757 13.1764 27.4122 13.1764C28.5486 13.1764 29.471 14.0988 29.471 15.2353V25.5294H40.2798C41.4163 25.5294 42.3386 26.4517 42.3386 27.5882C42.3386 28.7247 41.4163 29.647 40.2798 29.647Z" fill="#99FFAF"/>
</g>
<defs>
<clipPath id="clip0_521_304">
<rect width="53.5294" height="53.5294" fill="white" transform="translate(0.647461 0.823486)"/>
</clipPath>
</defs>
</svg>
