<svg width="22" height="24" viewBox="0 0 22 24" fill="none" xmlns="http://www.w3.org/2000/svg">
<path d="M8.79473 1.50897C7.82164 0.535884 6.52796 0 5.15185 0C3.77573 0 2.48205 0.535884 1.50897 1.50897C0.535883 2.48205 0 3.77573 0 5.15185C0 6.52796 0.535883 7.82165 1.50897 8.79473L11.7151 19.0009C13.0349 20.3205 15.1815 20.3201 16.5009 19.0009C17.8203 17.6813 17.8203 15.5347 16.5009 14.2151L6.39561 4.1101C6.007 3.7215 5.37675 3.7215 4.98831 4.1101C4.59971 4.4987 4.59971 5.1288 4.98831 5.5174L15.0935 15.6226C15.6368 16.1659 15.6368 17.0503 15.0935 17.5936C14.5501 18.137 13.6659 18.137 13.1224 17.5936L2.91626 7.3876C2.31901 6.79035 1.99028 5.99639 1.99028 5.15201C1.99028 4.30747 2.31918 3.51351 2.91626 2.91643C4.14908 1.68361 6.15462 1.68361 7.38743 2.91643L18.0812 13.6102C19.9997 15.5287 19.9997 18.6503 18.0812 20.5688C17.1519 21.498 15.9163 22.0099 14.602 22.0099C13.2878 22.0099 12.0522 21.498 11.1229 20.5688L2.90084 12.3466C2.51223 11.958 1.88198 11.958 1.49354 12.3466C1.10494 12.7352 1.10494 13.3653 1.49354 13.7539L9.71556 21.9759C11.0209 23.2812 12.7562 24 14.602 24C16.4479 24 18.1834 23.2812 19.4885 21.9759C20.7936 20.6706 21.5126 18.9352 21.5126 17.0892C21.5126 15.2434 20.7938 13.5079 19.4885 12.2028L8.79473 1.50897Z" fill="#DDDDDD"/>
</svg>
