<svg width="24" height="24" viewBox="0 0 24 24" fill="none" xmlns="http://www.w3.org/2000/svg">
<path d="M23.7285 4.26403L19.7361 0.271184C19.5625 0.0975128 19.327 0 19.0814 0C18.8359 0 18.6004 0.0975128 18.4269 0.271061L14.4338 4.26415C14.4333 4.26464 14.4328 4.26538 14.4322 4.26588L6.77336 11.9247C6.6066 12.0916 6.50983 12.3155 6.50267 12.5513L6.37738 16.6691C6.36961 16.9243 6.46761 17.1713 6.64807 17.3518C6.82199 17.5256 7.0575 17.6229 7.30264 17.6229C7.31202 17.6229 7.32153 17.6228 7.33091 17.6224L11.4487 17.4968C11.6843 17.4896 11.9083 17.3928 12.0751 17.2262L23.7285 5.57304C24.09 5.21175 24.09 4.62556 23.7285 4.26403ZM19.0811 7.60193L16.3976 4.91884L19.0814 2.23502L21.7647 4.9186L19.0811 7.60193ZM11.0254 15.6576L8.2579 15.7421L8.34208 12.9745L15.0884 6.22811L17.7719 8.91131L11.0254 15.6576Z" fill="#FFD699"/>
<path d="M16.3165 14.4532C15.8052 14.4532 15.3907 14.8675 15.3907 15.3789V22.1485H1.85151V8.60932H8.62112C9.13239 8.60932 9.54688 8.19495 9.54688 7.68357C9.54688 7.17218 9.13239 6.75781 8.62112 6.75781H0.925755C0.414491 6.75781 0 7.17218 0 7.68357V23.0742C0 23.5856 0.414491 23.9999 0.925755 23.9999H16.3164C16.8276 23.9999 17.2421 23.5856 17.2421 23.0742V15.3788C17.2422 14.8675 16.8278 14.4532 16.3165 14.4532Z" fill="#FFD699"/>
</svg>
