<svg width="24" height="24" viewBox="0 0 24 24" fill="none" xmlns="http://www.w3.org/2000/svg">
<g clip-path="url(#clip0_217_222)">
<path d="M23.8019 11.4016C23.5886 11.1147 18.5027 4.37518 12 4.37518C5.49717 4.37518 0.411441 11.1147 0.198098 11.4016C-0.0660328 11.7568 -0.0660328 12.2432 0.198098 12.5984C0.411441 12.8853 5.49717 19.6247 12 19.6247C18.5027 19.6247 23.5886 12.8853 23.8019 12.5984C24.066 12.2433 24.066 11.7568 23.8019 11.4016ZM12 16.0161C9.78553 16.0161 7.98395 14.2145 7.98395 12C7.98395 9.78546 9.78553 7.98388 12 7.98388C14.2145 7.98388 16.0161 9.78546 16.0161 12C16.0161 14.2145 14.2145 16.0161 12 16.0161Z" fill="#DDDDDD" fill-opacity="0.5"/>
<path d="M11.9998 13.7059C12.9419 13.7059 13.7057 12.9421 13.7057 12C13.7057 11.0579 12.9419 10.2941 11.9998 10.2941C11.0577 10.2941 10.2939 11.0579 10.2939 12C10.2939 12.9421 11.0577 13.7059 11.9998 13.7059Z" fill="#DDDDDD" fill-opacity="0.5"/>
<line x1="22.2134" y1="2.41421" x2="2.41439" y2="22.2132" stroke="#DDDDDD" stroke-width="2" stroke-linecap="round"/>
</g>
<defs>
<clipPath id="clip0_217_222">
<rect width="24" height="24" fill="white"/>
</clipPath>
</defs>
</svg>
