<svg width="44" height="47" viewBox="0 0 44 47" fill="none" xmlns="http://www.w3.org/2000/svg">
<path d="M30.2095 8.49988C30.4956 11.7443 30.8961 20.5623 30.2095 29.8785C30.2095 30.9214 35.1873 29.5309 41.8816 25.5333C42.9115 24.838 36.9038 20.319 36.2172 19.9713M21.9704 19.2761V45C29.7976 45 36.2173 41.4079 38.4487 39.6119" stroke="#EEEEEE" stroke-width="3"/>
<path d="M13.7905 8.49988C13.5044 11.7443 13.1039 20.5623 13.7905 29.8785C13.7905 30.9214 8.81271 29.5309 2.11842 25.5333C1.08852 24.838 7.09623 20.319 7.78282 19.9713M21.9704 19.2551L22.0296 45C14.2024 45 7.78275 41.4079 5.55132 39.6119" stroke="#EEEEEE" stroke-width="3"/>
<path d="M21.257 2C23.3168 3.96985 29.6335 8.88288 38.4219 12.7762" stroke="#EEEEEE" stroke-width="3"/>
<path d="M22.7308 2C20.671 3.96985 14.3543 8.88288 5.56592 12.7762" stroke="#EEEEEE" stroke-width="3"/>
</svg>
