<svg width="145" height="145" viewBox="0 0 145 145" fill="none" xmlns="http://www.w3.org/2000/svg">
<path d="M106.778 4.7148C102.712 2.64624 97.738 4.26705 95.67 8.33477L34.2301 129.178C32.1621 133.245 33.7829 138.218 37.8501 140.286C39.0496 140.895 40.3278 141.184 41.5873 141.184C44.5976 141.184 47.4995 139.533 48.9578 136.666L110.398 15.8226C112.466 11.7554 110.845 6.7828 106.778 4.7148Z" fill="#151515" fill-opacity="0.15"/>
<path d="M62.6614 44.509C62.6614 27.233 48.6061 13.1777 31.3302 13.1777C14.0553 13.1777 0 27.233 0 44.509C0 61.7844 14.0553 75.8397 31.3307 75.8397C48.6067 75.8397 62.6614 61.7844 62.6614 44.509ZM31.3307 59.3177C23.1655 59.3177 16.522 52.6742 16.522 44.509C16.522 36.3433 23.1655 29.6998 31.3307 29.6998C39.4964 29.6998 46.1399 36.3427 46.1399 44.509C46.1394 52.6742 39.4964 59.3177 31.3307 59.3177Z" fill="#151515" fill-opacity="0.15"/>
<path d="M113.669 69.1611C96.3932 69.1611 82.3379 83.2164 82.3379 100.492C82.3379 117.767 96.3926 131.823 113.669 131.823C130.945 131.823 145 117.768 145 100.492C145 83.2159 130.945 69.1611 113.669 69.1611ZM113.669 115.3C105.503 115.3 98.8599 108.656 98.8599 100.491C98.8599 92.3261 105.503 85.6826 113.669 85.6826C121.834 85.6826 128.478 92.3261 128.478 100.491C128.478 108.656 121.835 115.3 113.669 115.3Z" fill="#151515" fill-opacity="0.15"/>
</svg>
