<svg width="15" height="17" viewBox="0 0 15 17" fill="none" xmlns="http://www.w3.org/2000/svg">
<g filter="url(#filter0_d_846_157)">
<path d="M8.61 9.07143C10.605 9.07143 12 7.61152 12 5.5129C12 3.41429 10.605 2 8.61 2H4.78125C4.62593 2 4.5 2.13193 4.5 2.29464V7.3682H3.28125C3.12593 7.3682 3 7.50012 3 7.66284V8.77679C3 8.9395 3.12593 9.07143 3.28125 9.07143H4.5V9.85714H3.28125C3.12593 9.85714 3 9.98907 3 10.1518V11.1339C3 11.2966 3.12593 11.4286 3.28125 11.4286H4.5V12.7054C4.5 12.8681 4.62593 13 4.78125 13H6.15375C6.30907 13 6.435 12.8681 6.435 12.7054V11.4286H10.2188C10.3741 11.4286 10.5 11.2966 10.5 11.1339V10.1518C10.5 9.98907 10.3741 9.85714 10.2188 9.85714H6.435V9.07143H8.61ZM6.435 3.68801H8.28C9.375 3.68801 10.035 4.40276 10.035 5.5129C10.035 6.63824 9.375 7.3682 8.25 7.3682H6.435V3.68801Z" fill="#DFC352"/>
</g>
<defs>
<filter id="filter0_d_846_157" x="0" y="0" width="15" height="17" filterUnits="userSpaceOnUse" color-interpolation-filters="sRGB">
<feFlood flood-opacity="0" result="BackgroundImageFix"/>
<feColorMatrix in="SourceAlpha" type="matrix" values="0 0 0 0 0 0 0 0 0 0 0 0 0 0 0 0 0 0 127 0" result="hardAlpha"/>
<feOffset dy="1"/>
<feGaussianBlur stdDeviation="1.5"/>
<feComposite in2="hardAlpha" operator="out"/>
<feColorMatrix type="matrix" values="0 0 0 0 0 0 0 0 0 0 0 0 0 0 0 0 0 0 0.35 0"/>
<feBlend mode="normal" in2="BackgroundImageFix" result="effect1_dropShadow_846_157"/>
<feBlend mode="normal" in="SourceGraphic" in2="effect1_dropShadow_846_157" result="shape"/>
</filter>
</defs>
</svg>
