<svg width="28" height="28" viewBox="0 0 28 28" fill="none" xmlns="http://www.w3.org/2000/svg">
<g filter="url(#filter0_d_505_159)">
<path d="M9 12C6.2 12 4 14.2 4 17C4 19.8 6.2 22 9 22C11.8 22 14 19.8 14 17C14 14.2 11.8 12 9 12ZM13 7C10.6 7 8.4 8.5 7.5 10.7C11 9.8 14.5 12 15.3 15.4C15.6 16.4 15.6 17.5 15.3 18.5C18.4 17.2 19.8 13.7 18.5 10.7C17.6 8.5 15.4 7 13 7ZM23.2 5.8C22.1 3.5 19.6 2 17 2C14.4 2 11.9 3.5 10.8 5.8C14.8 4.6 19 6.8 20.2 10.7C20.7 12.2 20.7 13.7 20.2 15.2C23.6 13.5 25 9.3 23.2 5.8Z" fill="#DDDDDD"/>
</g>
<defs>
<filter id="filter0_d_505_159" x="-2" y="-2" width="32" height="32" filterUnits="userSpaceOnUse" color-interpolation-filters="sRGB">
<feFlood flood-opacity="0" result="BackgroundImageFix"/>
<feColorMatrix in="SourceAlpha" type="matrix" values="0 0 0 0 0 0 0 0 0 0 0 0 0 0 0 0 0 0 127 0" result="hardAlpha"/>
<feOffset dy="2"/>
<feGaussianBlur stdDeviation="2"/>
<feComposite in2="hardAlpha" operator="out"/>
<feColorMatrix type="matrix" values="0 0 0 0 0 0 0 0 0 0 0 0 0 0 0 0 0 0 0.25 0"/>
<feBlend mode="normal" in2="BackgroundImageFix" result="effect1_dropShadow_505_159"/>
<feBlend mode="normal" in="SourceGraphic" in2="effect1_dropShadow_505_159" result="shape"/>
</filter>
</defs>
</svg>
