<svg width="19" height="20" viewBox="0 0 19 20" fill="none" xmlns="http://www.w3.org/2000/svg">
<path d="M16.0546 2.48656H12.2032C12.0778 1.09415 10.9277 0 9.5316 0C8.13547 0 6.98545 1.09415 6.85996 2.48656H3.00859C1.87035 2.48656 0.944336 3.43187 0.944336 4.59382C0.944336 5.72749 1.82596 6.65445 2.926 6.69894V17.448C2.926 18.8191 4.01869 19.9346 5.36181 19.9346H13.7013C15.0445 19.9346 16.1372 18.8191 16.1372 17.448V6.6989C17.2372 6.65445 18.1188 5.72749 18.1188 4.59377C18.1188 3.43182 17.1928 2.48656 16.0546 2.48656ZM6.84634 16.4189C6.84634 16.768 6.56907 17.0511 6.22709 17.0511C5.88507 17.0511 5.60784 16.768 5.60784 16.4189V8.10943C5.60784 7.76028 5.88511 7.47728 6.22709 7.47728C6.56911 7.47728 6.84634 7.76033 6.84634 8.10943V16.4189ZM10.1509 16.4189C10.1509 16.768 9.87358 17.0511 9.5316 17.0511C9.18958 17.0511 8.91235 16.768 8.91235 16.4189V8.10943C8.91235 7.76028 9.18962 7.47728 9.5316 7.47728C9.87362 7.47728 10.1509 7.76033 10.1509 8.10943V16.4189ZM13.4554 16.4189C13.4554 16.768 13.1781 17.0511 12.8361 17.0511C12.4941 17.0511 12.2168 16.768 12.2168 16.4189V8.10943C12.2168 7.76028 12.4941 7.47728 12.8361 7.47728C13.1781 7.47728 13.4554 7.76033 13.4554 8.10943V16.4189Z" fill="#2D2D2D"/>
</svg>
