<svg width="24" height="24" viewBox="0 0 24 24" fill="none" xmlns="http://www.w3.org/2000/svg">
<g clip-path="url(#clip0_507_180)">
<path d="M9.82943 19.6684C11.8531 19.6684 13.7227 19.0516 15.2838 18.0109L20.9309 23.658C21.3744 24.1013 22.1068 24.1013 22.5691 23.658L23.6677 22.5594C24.111 22.1161 24.111 21.3837 23.6677 20.9212L18.0014 15.2933C19.0419 13.7322 19.6589 11.8627 19.6589 9.83895C19.6589 4.42313 15.2453 0.00952148 9.82943 0.00952148C4.41361 0.00952148 0 4.42313 0 9.83895C0 15.2546 4.39433 19.6684 9.82943 19.6684ZM9.82943 3.8642C13.1252 3.8642 15.8042 6.5432 15.8042 9.83895C15.8042 13.1347 13.1252 15.8137 9.82943 15.8137C6.53368 15.8137 3.85468 13.1347 3.85468 9.83895C3.85468 6.5432 6.53368 3.8642 9.82943 3.8642Z" fill="#DDDDDD"/>
</g>
<defs>
<clipPath id="clip0_507_180">
<rect width="24" height="24" fill="white"/>
</clipPath>
</defs>
</svg>
